<svg version="1.1" id="Layer_1" xmlns="http://www.w3.org/2000/svg" xmlns:xlink="http://www.w3.org/1999/xlink" x="0px" y="0px" viewBox="0 0 270 135.5" xml:space="preserve" style="enable-background:new 0 0 270 135.5;" data-v-2a183b29=""><style type="text/css" data-v-2a183b29="">

        .st0 {
      opacity: 0.16;
      fill: none;
      stroke: url(#SVGID_1_);
      stroke-width: 3;
      stroke-linecap: round;
      stroke-miterlimit: 10;
      enable-background: new;
    }

    .st1 {
      fill: none;
      stroke: url(#SVGID_2_);
      stroke-width: 3;
      stroke-linecap: round;
      stroke-miterlimit: 10;
    }

    .st2 {
      fill: none;
      stroke: url(#SVGgraphicIllustration1ID8_1_);
      stroke-width: 3;
      stroke-linecap: round;
      stroke-miterlimit: 10;
    }

    .st3 {
      opacity: 0.1;
      fill: #40b883;
      enable-background: new;
    }

    .st4 {
      fill: #FFFFFF;
    }

    .st5 {
      clip-path: url(#SVGID_4_);
    }

    .st6 {
      fill: none;
      stroke: #FFFFFF;
      stroke-width: 1.5;
      stroke-miterlimit: 10;
    }

    .st7 {
      clip-path: url(#SVGID_6_);
    }
</style> <linearGradient id="SVGID_1_" gradientUnits="userSpaceOnUse" x1="104.9" y1="76.1639" x2="265" y2="76.1639" gradientTransform="matrix(-1 0 0 -1 269.9 138)" data-v-2a183b29=""><stop offset="5.908129e-07" style="stop-color:#FFFFFF;stop-opacity:0;" data-v-2a183b29=""></stop> <stop offset="1" style="stop-color:#40b883;" data-v-2a183b29=""></stop></linearGradient> <path d="M163.5,65c-18.4-5.9-22-2-44.3,12S71.3,89,54.3,64S6.4,38,6.4,38" class="st0" data-v-2a183b29=""></path> <linearGradient id="SVGID_2_" gradientUnits="userSpaceOnUse" x1="24.5" y1="71.475" x2="269.9" y2="71.475" gradientTransform="matrix(-1 0 0 -1 269.9 138)" data-v-2a183b29=""><stop offset="5.908129e-07" style="stop-color:#FFFFFF;stop-opacity:0;" data-v-2a183b29=""></stop> <stop offset="1" style="stop-color:#35495e;" data-v-2a183b29=""></stop></linearGradient> <path d="M1.5,1.5c7.3,7,12.6,16,14.4,26c1,5.6,0.6,10.8,0,16.4c-1,9.9-0.4,19.9,0.3,29.8c1.1,16.1,3,36.2,13.8,49.1
    c2.7,3.2,6,5.8,9.9,7.2c5.7,2,12.2,2.2,17.9-0.2c6.1-2.6,10.3-8,15.1-12.3c6.6-6,14.2-8,23-7.5c5.6,0.3,11.4,1,16.6,3.3
    c5.9,2.6,10,7.6,15.3,11.1c7.1,4.7,16.3,5.6,24.2,2.5c0.3-0.1,0.6-0.3,0.9-0.4c10.8-4.6,22.4-5.1,34-4.5c8.9,0.5,17.8,1.3,26.5,3
    c9.9,1.9,20.4,5.1,30.5,3" class="st1" data-v-2a183b29=""></path> <linearGradient id="SVGgraphicIllustration1ID8_1_" gradientUnits="userSpaceOnUse" x1="-3.648765e-07" y1="54.6657" x2="265.5" y2="54.6657" gradientTransform="matrix(-1 0 0 -1 269.9 138)" data-v-2a183b29=""><stop offset="3.954259e-07" style="stop-color:#FFFFFF;stop-opacity:0;" data-v-2a183b29=""></stop> <stop offset="1" style="stop-color:#40b883;" data-v-2a183b29=""></stop></linearGradient> <path id="SVGgraphicIllustration1ID8" d="M5.9,33.8c5.1-0.5,10.3-1.3,15.5-1.1c8.2,0.3,16.3,2.5,23.7,6.1
    c9.9,4.9,18.2,12.7,24.5,21.8c2.8,4.1,6,8.2,10.1,11c4.3,3,9.2,4.8,14.4,5.3c1.9,0.2,3.7,0.2,5.6,0.1c18.4-1.3,33.1-19.3,51.9-16.8
    c12.5,1.6,21.5,12.2,28,24.6c6.7,12.7,14.2,23.1,24.9,30.9c19.1,13.8,42.1,17.6,63.9,18.3" class="st2" data-v-2a183b29=""></path> <g data-v-2a183b29=""><path d="M19.9,69.8L19.9,69.8c0-7.7,6.3-14,14-14l0,0c7.7,0,14,6.3,14,14l0,0c0,7.7-6.3,14-14,14l0,0
        C26.2,83.8,19.9,77.5,19.9,69.8z" class="st3" data-v-2a183b29=""></path></g> <g data-v-2a183b29=""><path d="M250.4,119L250.4,119c0-4.7,3.8-8.5,8.5-8.5l0,0c4.7,0,8.5,3.8,8.5,8.5l0,0c0,4.7-3.8,8.5-8.5,8.5l0,0
        C254.2,127.5,250.4,123.7,250.4,119z" class="st4" data-v-2a183b29=""></path></g> <g data-v-2a183b29=""><defs data-v-2a183b29=""><path id="SVGgraphicIllustration1ID3" d="M56.3,86.5L56.3,86.5c-9.5,0-17.3-7.7-17.3-17.2v0C39,59.7,46.7,52,56.2,52h0c9.5,0,17.2,7.7,17.2,17.2v0    C73.5,78.8,65.8,86.5,56.3,86.5z" data-v-2a183b29=""></path></defs> <clipPath id="SVGgraphicIllustration1ID4" data-v-2a183b29=""><use xlink:href="#SVGgraphicIllustration1ID3" style="overflow:visible;" data-v-2a183b29=""></use></clipPath> <g transform="matrix(1 0 0 1 0 -3.814697e-06)" style="clip-path:url(#SVGgraphicIllustration1ID4);" data-v-2a183b29=""><image id="SVGgraphicIllustration1Img1" width="100" height="100" xlink:href="/img/100x100/img1.jpg" transform="matrix(0.3666 0 0 0.3666 37.9219 50.5935)" style="overflow:visible;" data-v-2a183b29=""></image></g> <use xlink:href="#SVGgraphicIllustration1ID3" style="overflow:visible;fill:none;stroke:#FFFFFF;stroke-width:1.5;stroke-miterlimit:10;" data-v-2a183b29=""></use></g> <g data-v-2a183b29=""><path d="M89.9,44.8L89.9,44.8c0-8.3,6.7-15,15-15l0,0c8.3,0,15,6.7,15,15l0,0c0,8.3-6.7,15-15,15l0,0
        C96.6,59.8,89.9,53,89.9,44.8z" class="st4" data-v-2a183b29=""></path></g> <g data-v-2a183b29=""><defs data-v-2a183b29=""><path id="SVGgraphicIllustration1ID5" d="M177.8,127.5L177.8,127.5c-8.7,0-15.8-7.1-15.8-15.7v0c0-8.7,7.1-15.7,15.7-15.7h0    c8.7,0,15.7,7.1,15.7,15.7v0C193.5,120.4,186.4,127.5,177.8,127.5z" data-v-2a183b29=""></path></defs> <clipPath id="SVGgraphicIllustration1ID6" data-v-2a183b29=""><use xlink:href="#SVGgraphicIllustration1ID5" style="overflow:visible;" data-v-2a183b29=""></use></clipPath> <g style="clip-path:url(#SVGgraphicIllustration1ID6);" data-v-2a183b29=""><image id="SVGgraphicIllustration1Img2" width="100" height="100" xlink:href="/img/pooya.jpeg" transform="matrix(0.3347 0 0 0.3347 161.0156 95.0156)" style="overflow:visible;" data-v-2a183b29=""></image></g> <use xlink:href="#SVGgraphicIllustration1ID5" style="overflow:visible;fill:none;stroke:#FFFFFF;stroke-width:1.5;stroke-miterlimit:10;" data-v-2a183b29=""></use></g></svg>
